<svg xmlns="http://www.w3.org/2000/svg" xmlns:xlink="http://www.w3.org/1999/xlink" width="500" zoomAndPan="magnify" viewBox="0 0 375 374.999991" height="500" preserveAspectRatio="xMidYMid meet" version="1.0"><defs><clipPath id="bf7fb8fa53"><path d="M 187.5 0 C 83.945312 0 0 83.945312 0 187.5 C 0 291.054688 83.945312 375 187.5 375 C 291.054688 375 375 291.054688 375 187.5 C 375 83.945312 291.054688 0 187.5 0 " clip-rule="nonzero"/></clipPath><clipPath id="788270b453"><path d="M 68.625 39 L 250 39 L 250 335 L 68.625 335 Z M 68.625 39 " clip-rule="nonzero"/></clipPath><clipPath id="17589a3097"><path d="M 120 106 L 306.375 106 L 306.375 188 L 120 188 Z M 120 106 " clip-rule="nonzero"/></clipPath></defs><g clip-path="url(#bf7fb8fa53)"><rect x="-37.5" width="450" fill="#ebf0ff" y="-37.499999" height="449.999989" fill-opacity="1"/></g><g clip-path="url(#788270b453)"><path fill="#5b5b80" d="M 249.121094 246.785156 C 249.121094 244.65625 247.394531 242.933594 245.269531 242.933594 L 154.214844 242.933594 C 151.421875 242.933594 148.890625 241.285156 147.753906 238.730469 L 147.75 238.722656 C 145.566406 233.800781 146.019531 228.113281 148.957031 223.605469 L 149.125 223.347656 C 157.1875 211.339844 161.492188 197.214844 161.496094 182.753906 C 161.539062 178.640625 161.539062 175.808594 161.539062 175.808594 C 161.539062 161.96875 167.035156 148.695312 176.820312 138.90625 C 186.605469 129.121094 199.878906 123.621094 213.71875 123.621094 C 213.722656 123.621094 213.730469 123.621094 213.734375 123.621094 C 224.28125 123.621094 234.503906 126.820312 243.101562 132.671875 C 244.28125 133.476562 245.808594 133.5625 247.070312 132.894531 C 248.328125 132.226562 249.121094 130.917969 249.121094 129.488281 L 249.121094 69.136719 C 249.121094 61.308594 246.007812 53.796875 240.472656 48.257812 C 234.9375 42.722656 227.425781 39.613281 219.59375 39.613281 C 186.976562 39.613281 131.023438 39.613281 98.40625 39.613281 C 90.578125 39.613281 83.066406 42.722656 77.527344 48.257812 C 71.992188 53.796875 68.882812 61.308594 68.882812 69.136719 C 68.882812 123.722656 68.882812 250.761719 68.882812 305.347656 C 68.882812 313.179688 71.992188 320.691406 77.527344 326.226562 C 83.066406 331.761719 90.578125 334.875 98.40625 334.875 C 131.023438 334.875 186.976562 334.875 219.59375 334.875 C 227.425781 334.875 234.9375 331.761719 240.472656 326.226562 C 246.007812 320.691406 249.121094 313.179688 249.121094 305.347656 C 249.121094 305.347656 249.121094 246.785156 249.121094 246.785156 Z M 249.121094 246.785156 " fill-opacity="1" fill-rule="evenodd"/></g><path fill="#e9ecfd" d="M 196.957031 126.386719 C 198.964844 125.707031 200.042969 123.535156 199.378906 121.519531 C 198.875 120.015625 198.601562 118.410156 198.601562 116.738281 C 198.601562 108.390625 205.378906 101.613281 213.722656 101.613281 C 219.15625 101.613281 223.921875 104.484375 226.59375 108.785156 C 227.496094 110.25 229.261719 110.933594 230.917969 110.460938 C 232.574219 109.988281 233.714844 108.476562 233.714844 106.757812 L 233.714844 69.136719 C 233.714844 65.394531 232.226562 61.800781 229.582031 59.152344 C 226.929688 56.507812 223.335938 55.015625 219.59375 55.015625 C 219.59375 55.015625 192.191406 55.015625 192.191406 55.015625 C 190.34375 55.015625 188.757812 56.328125 188.410156 58.140625 C 188.171875 59.390625 187.5625 60.554688 186.648438 61.46875 C 185.441406 62.667969 183.8125 63.347656 182.109375 63.347656 C 169.558594 63.347656 148.441406 63.347656 135.894531 63.347656 C 134.1875 63.347656 132.5625 62.667969 131.355469 61.46875 C 130.441406 60.554688 129.828125 59.390625 129.59375 58.140625 C 129.242188 56.328125 127.65625 55.015625 125.808594 55.015625 L 98.40625 55.015625 C 94.664062 55.015625 91.070312 56.507812 88.421875 59.152344 C 85.777344 61.800781 84.285156 65.394531 84.285156 69.136719 C 84.285156 123.722656 84.285156 250.761719 84.285156 305.347656 C 84.285156 309.089844 85.777344 312.6875 88.421875 315.335938 C 91.070312 317.980469 94.664062 319.46875 98.40625 319.46875 C 131.023438 319.46875 186.976562 319.46875 219.59375 319.46875 C 223.335938 319.46875 226.929688 317.980469 229.582031 315.335938 C 232.226562 312.6875 233.714844 309.089844 233.714844 305.347656 C 233.714844 305.347656 233.714844 261.285156 233.714844 261.285156 C 233.714844 259.699219 232.746094 258.277344 231.269531 257.695312 C 229.796875 257.121094 228.117188 257.5 227.039062 258.660156 C 223.722656 262.238281 218.984375 264.480469 213.722656 264.480469 C 203.828125 264.480469 195.773438 256.550781 195.570312 246.703125 C 195.53125 244.605469 193.820312 242.933594 191.722656 242.933594 L 154.214844 242.933594 C 151.421875 242.933594 148.890625 241.285156 147.753906 238.730469 L 147.75 238.722656 C 145.566406 233.800781 146.019531 228.113281 148.957031 223.605469 L 149.125 223.347656 C 157.1875 211.339844 161.492188 197.214844 161.496094 182.753906 C 161.539062 178.640625 161.539062 175.808594 161.539062 175.808594 C 161.539062 161.96875 167.035156 148.695312 176.820312 138.90625 C 182.539062 133.191406 189.445312 128.933594 196.957031 126.386719 Z M 196.957031 126.386719 " fill-opacity="1" fill-rule="evenodd"/><path fill="#e9ecfd" d="M 145.90625 59.183594 L 172.09375 59.183594 C 174.222656 59.183594 175.945312 57.457031 175.945312 55.332031 C 175.945312 53.203125 174.222656 51.480469 172.09375 51.480469 L 145.90625 51.480469 C 143.78125 51.480469 142.054688 53.203125 142.054688 55.332031 C 142.054688 57.457031 143.78125 59.183594 145.90625 59.183594 Z M 145.90625 59.183594 " fill-opacity="1" fill-rule="evenodd"/><g clip-path="url(#17589a3097)"><path fill="#ff8645" d="M 148.03125 110.117188 C 130.609375 127.539062 120.820312 151.171875 120.820312 175.808594 C 120.820312 182.488281 126.246094 187.910156 132.925781 187.910156 C 139.605469 187.910156 145.027344 182.488281 145.027344 175.808594 C 145.027344 157.589844 152.269531 140.121094 165.148438 127.234375 C 169.871094 122.511719 169.871094 114.839844 165.148438 110.117188 C 160.421875 105.390625 152.757812 105.390625 148.03125 110.117188 Z M 306.632812 175.808594 C 306.632812 151.171875 296.84375 127.539062 279.421875 110.117188 C 274.695312 105.390625 267.027344 105.390625 262.300781 110.117188 C 257.582031 114.839844 257.582031 122.511719 262.300781 127.234375 C 275.183594 140.121094 282.421875 157.589844 282.421875 175.808594 C 282.421875 182.488281 287.847656 187.910156 294.527344 187.910156 C 301.210938 187.910156 306.632812 182.488281 306.632812 175.808594 Z M 306.632812 175.808594 " fill-opacity="1" fill-rule="evenodd"/></g><path fill="#ff8645" d="M 191.722656 242.933594 C 190.6875 242.933594 189.699219 243.347656 188.972656 244.085938 C 188.25 244.828125 187.847656 245.828125 187.871094 246.859375 C 188.15625 260.882812 199.632812 272.179688 213.722656 272.179688 C 227.820312 272.179688 239.296875 260.882812 239.578125 246.859375 C 239.597656 245.828125 239.203125 244.828125 238.480469 244.085938 C 237.757812 243.347656 236.765625 242.933594 235.734375 242.933594 Z M 191.722656 242.933594 " fill-opacity="1" fill-rule="evenodd"/><path fill="#ff8645" d="M 192.070312 123.960938 C 192.394531 124.929688 193.09375 125.738281 194.011719 126.1875 C 194.929688 126.644531 195.988281 126.71875 196.957031 126.386719 C 202.308594 124.574219 207.964844 123.621094 213.71875 123.621094 C 213.722656 123.621094 213.730469 123.621094 213.734375 123.621094 C 219.484375 123.621094 225.144531 124.574219 230.496094 126.386719 C 231.464844 126.71875 232.523438 126.644531 233.441406 126.1875 C 234.363281 125.738281 235.058594 124.929688 235.382812 123.960938 C 236.144531 121.691406 236.554688 119.261719 236.554688 116.738281 C 236.554688 104.136719 226.324219 93.910156 213.722656 93.910156 C 201.128906 93.910156 190.898438 104.136719 190.898438 116.738281 C 190.898438 119.261719 191.308594 121.691406 192.070312 123.960938 Z M 192.070312 123.960938 " fill-opacity="1" fill-rule="evenodd"/><path fill="#ffb43f" d="M 273.617188 182.734375 L 273.617188 175.808594 C 273.617188 159.925781 267.308594 144.691406 256.078125 133.460938 C 244.847656 122.230469 229.617188 115.917969 213.734375 115.917969 C 213.730469 115.917969 213.722656 115.917969 213.71875 115.917969 C 197.835938 115.917969 182.605469 122.230469 171.375 133.460938 C 160.144531 144.691406 153.835938 159.925781 153.835938 175.808594 C 153.835938 175.808594 153.835938 178.621094 153.792969 182.699219 C 153.792969 182.710938 153.792969 182.71875 153.792969 182.734375 C 153.792969 195.667969 149.941406 208.3125 142.734375 219.050781 C 142.65625 219.15625 142.578125 219.28125 142.496094 219.402344 C 138.140625 226.101562 137.46875 234.542969 140.710938 241.84375 C 140.710938 241.847656 140.714844 241.847656 140.714844 241.855469 C 143.082031 247.195312 148.371094 250.632812 154.214844 250.632812 C 177.308594 250.632812 250.140625 250.632812 273.238281 250.632812 C 279.078125 250.632812 284.371094 247.195312 286.738281 241.855469 C 286.738281 241.847656 286.742188 241.847656 286.742188 241.84375 C 289.984375 234.542969 289.3125 226.101562 284.957031 219.402344 C 284.824219 219.199219 284.679688 219.003906 284.527344 218.816406 C 277.414062 208.132812 273.617188 195.578125 273.617188 182.734375 Z M 273.617188 182.734375 " fill-opacity="1" fill-rule="evenodd"/><path fill="#5b5b80" d="M 125.625 296.363281 L 192.378906 296.363281 C 194.503906 296.363281 196.230469 294.636719 196.230469 292.511719 C 196.230469 290.382812 194.503906 288.660156 192.378906 288.660156 L 125.625 288.660156 C 123.496094 288.660156 121.773438 290.382812 121.773438 292.511719 C 121.773438 294.636719 123.496094 296.363281 125.625 296.363281 Z M 125.625 296.363281 " fill-opacity="1" fill-rule="evenodd"/></svg>